<svg width="24" height="24" viewBox="0 0 24 24" xmlns="http://www.w3.org/2000/svg">
    <g fill="#A5A5AC" fill-rule="nonzero">
        <path d="M19.483 6.934c.69-.67.69-1.761 0-2.431a1.808 1.808 0 0 0-2.502 0l-6.464 6.281c-.69.67-.69 1.761 0 2.432l6.464 6.281c.69.67 1.812.67 2.502 0 .69-.67.69-1.76 0-2.43L14.27 12l5.213-5.066z"/>
        <path d="M4.517 6.934a1.687 1.687 0 0 1 0-2.431c.69-.67 1.812-.67 2.502 0l6.464 6.281c.69.67.69 1.761 0 2.432l-6.464 6.281c-.69.67-1.812.67-2.502 0a1.687 1.687 0 0 1 0-2.43L9.73 12 4.517 6.934z"/>
    </g>
</svg>
