<svg width="24" height="21" viewBox="0 0 24 21" xmlns="http://www.w3.org/2000/svg">
    <g fill="#A5A5AC" fill-rule="nonzero">
        <path d="m11.803 6.555 3.432 3.432.016-.18a3.27 3.27 0 0 0-3.268-3.268l-.18.016z"/>
        <path d="M11.983 4.36a5.449 5.449 0 0 1 5.447 5.447c0 .703-.142 1.373-.387 1.988l3.186 3.186a12.937 12.937 0 0 0 3.742-5.174c-1.89-4.782-6.536-8.17-11.988-8.17a12.74 12.74 0 0 0-4.341.762l2.353 2.348a5.474 5.474 0 0 1 1.988-.387zM1.09 1.392l2.483 2.483.496.496A12.903 12.903 0 0 0 0 9.807c1.885 4.782 6.536 8.17 11.983 8.17 1.689 0 3.3-.327 4.777-.92l.463.463 3.175 3.18 1.39-1.383L2.477.003 1.09 1.392zM7.113 7.41l1.683 1.683a3.452 3.452 0 0 0-.082.714 3.27 3.27 0 0 0 3.268 3.268c.245 0 .48-.033.708-.082l1.683 1.683c-.724.36-1.53.578-2.391.578a5.449 5.449 0 0 1-5.447-5.447 5.4 5.4 0 0 1 .578-2.397z"/>
    </g>
</svg>
